
nColumns=19
nRows=46
DataType=double
version=3
OpenSimVersion=4.4-2022-10-11-798caa840
endheader
time	ground_force_calcn_r_vx	ground_force_calcn_r_vy	ground_force_calcn_r_vz	ground_force_calcn_r_px	ground_force_calcn_r_py	ground_force_calcn_r_pz	ground_force_calcn_r_mx	ground_force_calcn_r_my	ground_force_calcn_r_mz	ground_force_calcn_l_vx	ground_force_calcn_l_vy	ground_force_calcn_l_vz	ground_force_calcn_l_px	ground_force_calcn_l_py	ground_force_calcn_l_pz	ground_force_calcn_l_mx	ground_force_calcn_l_my	ground_force_calcn_l_mz
2.72	-0.322022	0.258786	0.0485123	1.19671	0	-0.430389	8.233029999999999e-11	-6.616299999999999e-11	-1.2403e-11	88.92529999999999	738.187	36.0486	0.741289	0	-0.562697	-0.0669753	-0.555975	-0.0271505
2.725	-0.589894	0.533927	0.1093	1.19923	0	-0.431029	5.03924e-10	-4.56113e-10	-9.33707e-11	94.8139	738.687	37.8455	0.742563	0	-0.561467	-0.123339	-0.960925	-0.0492316
2.73	-1.1614	1.17003	0.261525	1.20105	0	-0.431543	3.18543e-09	-3.2091e-09	-7.173e-10	98.5414	737.158	36.7251	0.7438900000000001	0	-0.560092	-0.178277	-1.33363	-0.0664414
2.735	-2.52831	2.76057	0.628749	1.20229	0	-0.431823	2.02196e-08	-2.20771e-08	-5.02829e-09	101.382	732.417	34.4103	0.745266	0	-0.558616	-0.221628	-1.60111	-0.0752231
2.74	-4.38328	6.48591	1.34385	1.20236	0	-0.43188	2.26326e-07	-3.34894e-07	-6.938860000000001e-08	104.71	724.766	31.9073	0.7466469999999999	0	-0.5570889999999999	-0.246604	-1.7069	-0.075145
2.745	-2.47654	13.9608	2.28415	1.20166	0	-0.431837	8.29826e-07	-4.67792e-06	-7.65359e-07	108.23	715.128	29.1254	0.748017	0	-0.555536	-0.251487	-1.66169	-0.0676766
2.75	2.79284	25.7599	4.40619	1.20182	0	-0.431925	-2.80894e-06	-2.59084e-05	-4.43159e-06	111.522	703.654	25.7517	0.749409	0	-0.553957	-0.242584	-1.5306	-0.0560157
2.755	7.68602	41.3118	7.76494	1.2024	0	-0.432011	-2.38931e-05	-0.000128424	-2.41385e-05	114.648	690.302	22.3682	0.750874	0	-0.552293	-0.225602	-1.35835	-0.0440154
2.76	9.994680000000001	71.0189	12.6612	1.20301	0	-0.432076	-8.58856e-05	-0.000610274	-0.0001088	117.498	675.0170000000001	18.9962	0.752447	0	-0.550495	-0.20257	-1.16375	-0.0327501
2.765	6.73226	124.296	16.6045	1.20354	0	-0.432171	-0.000149158	-0.00275386	-0.000367885	119.804	657.587	15.4904	0.75413	0	-0.548616	-0.173425	-0.951905	-0.0224235
2.77	-0.381233	185.608	17.9462	1.20412	0	-0.432255	2.27882e-05	-0.0110947	-0.00107274	121.423	637.883	12.3021	0.755926	0	-0.5467030000000001	-0.136185	-0.715437	-0.0137978
2.775	-4.3995	238.745	19.9828	1.20489	0	-0.432225	0.000679949	-0.0368984	-0.00308836	122.397	615.83	9.58827	0.7578819999999999	0	-0.544665	-0.0934783	-0.470328	-0.00732285
2.78	-9.773949999999999	278.562	20.3358	1.20595	0	-0.432038	0.00339248	-0.096687	-0.00705841	122.607	591.663	6.88952	0.76002	0	-0.542467	-0.0549341	-0.265094	-0.00308685
2.785	-17.2087	307.204	19.6903	1.20743	0	-0.4316	0.0109401	-0.195299	-0.0125178	121.924	565.52	4.19648	0.762315	0	-0.540214	-0.02812	-0.130429	-0.000967857
2.79	-24.6014	329.181	19.172	1.20941	0	-0.43089	0.0233517	-0.31246	-0.0181981	120.404	537.402	1.75688	0.764744	0	-0.53799	-0.00901947	-0.0402566	-0.000131607
2.795	-32.028	348.02	17.9883	1.21167	0	-0.430054	0.0383213	-0.416404	-0.0215229	117.919	507.353	-0.836229	0.767249	0	-0.535949	0.00857896	0.0369115	-6.08383e-05
2.8	-39.8973	366.202	16.182	1.21421	0	-0.429198	0.0548667	-0.5036	-0.0222535	114.487	476.194	-3.35483	0.769742	0	-0.534314	0.0258447	0.107498	-0.000757334
2.805	-47.3402	388.469	13.6412	1.21798	0	-0.428092	0.07356939999999999	-0.603704	-0.0211992	109.732	444.557	-5.5465	0.7721980000000001	0	-0.533174	0.043914	0.17791	-0.00221968
2.81	-54.3674	418.501	10.0409	1.22411	0	-0.426598	0.0839411	-0.6461479999999999	-0.0155028	102.698	411.775	-7.541	0.774752	0	-0.5323830000000001	0.0612952	0.245766	-0.00450082
2.815	-62.0573	453.781	5.33103	1.23226	0	-0.425258	0.0552088	-0.403702	-0.00474271	94.6408	375.339	-9.230869999999999	0.777617	0	-0.53185	0.0769642	0.305234	-0.00750677
2.82	-69.2521	488.223	0.333323	1.24107	0	-0.424572	-0.0288952	0.20371	0.000139078	87.0361	332.213	-10.5061	0.781072	0	-0.531575	0.0915923	0.349604	-0.0110561
2.825	-75.5099	517.103	-3.97527	1.24933	0	-0.424439	-0.129151	0.884444	-0.00679923	78.04470000000001	283.121	-11.631	0.785601	0	-0.531287	0.0934045	0.338841	-0.0139201
2.83	-81.1858	541.545	-7.51478	1.25684	0	-0.424703	-0.205997	1.37409	-0.0190676	66.49379999999999	233.53	-12.6507	0.791397	0	-0.531072	0.0747852	0.26265	-0.0142282
2.835	-86.3142	565.34	-9.8188	1.26381	0	-0.425291	-0.235241	1.54078	-0.0267602	54.347	187.827	-12.9045	0.798419	0	-0.530868	0.0333828	0.115373	-0.00792663
2.84	-90.3001	588.619	-11.2549	1.27006	0	-0.425926	-0.211208	1.37676	-0.0263248	43.5794	154.267	-13.1113	0.803366	0	-0.530828	-0.000834146	-0.00295279	0.00025096
2.845	-93.36490000000001	610.351	-12.6067	1.27548	0	-0.42641	-0.153331	1.00236	-0.0207037	34.5991	128.555	-12.8954	0.80424	0	-0.530783	-4.98383e-07	-1.85177e-06	1.85752e-07
2.85	-95.6952	629.247	-14.2798	1.28	0	-0.426693	-0.0707634	0.465307	-0.0105594	28.3707	100.513	-11.3131	0.805405	0	-0.530664	-2.50543e-10	-8.87637e-10	9.99061e-11
2.855	-97.0117	645.5119999999999	-16.5307	1.28355	0	-0.426788	0.0140598	-0.0935532	0.00239578	20.9301	74.2371	-10.0516	0.806647	0	-0.530534	-3.32678e-13	-1.17998e-12	1.59767e-13
2.86	-97.5972	662.414	-19.2233	1.28605	0	-0.426705	0.0675058	-0.458177	0.0132963	10.176	48.0897	-9.3649	0.80789	0	-0.5304140000000001	-6.78543e-16	-3.20665e-15	6.24456e-16
2.865	-97.6168	681.223	-21.9307	1.28763	0	-0.42645	0.08452469999999999	-0.589859	0.0189894	0.603451	24.2486	-6.52228	0.809218	0	-0.530176	-2.49945e-17	-1.00436e-15	2.70148e-16
2.87	-97.1512	698.491	-23.9179	1.28866	0	-0.426079	0.0945098	-0.6795	0.0232676	-2.55599	4.88046	-1.36604	0.810813	0	-0.529707	-0	0	-0
2.875	-96.212	712.349	-25.0691	1.28942	0	-0.425637	0.116799	-0.864771	0.0304331	0.00423133	-0.00429502	0.000352443	0.814307	0	-0.529182	3.03841e-19	-3.08414e-19	2.53081e-20
2.88	-94.8625	723.622	-25.4315	1.28993	0	-0.425134	0.140813	-1.07414	0.0377502	7.5313e-06	-6.73584e-06	-1.69718e-07	0.819784	0	-0.529137	-1.26682e-21	1.13301e-21	2.85477e-23
2.885	-93.1307	732.973	-25.4471	1.29033	0	-0.424597	0.159876	-1.25828	0.0436846	1.81399e-06	-1.49968e-06	-1.02543e-07	0.826546	0	-0.529389	-7.67337e-23	6.34381e-23	4.33767e-24
2.89	-91.0097	740.586	-25.6401	1.29063	0	-0.424029	0.176342	-1.43497	0.0496807	2.16109e-07	-1.64434e-07	-1.34183e-08	0.834493	0	-0.52976	1.05198e-23	-8.004350000000001e-24	-6.53179e-25
2.895	-88.565	746.501	-26.3724	1.29084	0	-0.423438	0.185182	-1.56087	0.0551425	1.27331e-08	-8.85201e-09	-7.82908e-10	0.843877	0	-0.530208	4.09818e-26	-2.84904e-26	-2.51981e-27
2.9	-85.9188	750.467	-27.7076	1.29098	0	-0.422836	0.186425	-1.62835	0.0601193	3.46838e-09	-2.2249e-09	-2.16079e-10	0.854668	0	-0.530756	3.47643e-25	-2.23007e-25	-2.16581e-26
2.905	-83.10080000000001	752.449	-29.3484	1.29111	0	-0.42224	0.181177	-1.6405	0.06398570000000001	5.44125e-09	-3.25466e-09	-3.35723e-10	0.866696	0	-0.531367	2.48111e-24	-1.48407e-24	-1.53083e-25
2.91	-80.1754	752.701	-30.9998	1.29126	0	-0.421669	0.170379	-1.59955	0.0658772	1.55352e-08	-8.68918e-09	-9.17554e-10	0.8799400000000001	0	-0.5320009999999999	2.3792e-23	-1.33074e-23	-1.40523e-24
2.915	-77.2016	751.353	-32.3151	1.29143	0	-0.421121	0.159292	-1.55029	0.06667670000000001	9.258969999999999e-08	-4.8621e-08	-5.19334e-09	0.894344	0	-0.532652	5.15129e-22	-2.70506e-22	-2.88935e-23
2.92	-74.1836	748.497	-33.2153	1.29164	0	-0.420589	0.148934	-1.50271	0.0666843	1.18851e-06	-5.89446e-07	-6.31219e-08	0.909759	0	-0.5333059999999999	2.04174e-20	-1.01261e-20	-1.08437e-21
2.925	-71.1456	744.157	-33.8613	1.29191	0	-0.420069	0.14028	-1.46728	0.06676559999999999	1.55102e-05	-7.30626e-06	-7.73805e-07	0.9260350000000001	0	-0.5339429999999999	1.34191e-18	-6.32122e-19	-6.6948e-20
2.93	-68.1002	738.2619999999999	-34.3885	1.29224	0	-0.419555	0.134954	-1.46301	0.0681475	-8.943180000000001e-05	4.01847e-05	4.15998e-06	0.943062	0	-0.53455	6.55212e-17	-2.94409e-17	-3.04776e-18
2.935	-65.06310000000001	730.842	-35.0083	1.29265	0	-0.419058	0.129701	-1.45691	0.069788	-0.000126566	5.44986e-05	5.454e-06	0.9607	0	-0.535116	-1.76385e-16	7.59502e-17	7.600790000000001e-18
2.94	-62.0457	722.165	-35.719	1.29313	0	-0.418587	0.122024	-1.42026	0.07024759999999999	-0.000120896	5.00965e-05	4.79669e-06	0.9788249999999999	0	-0.535637	6.79774e-16	-2.81684e-16	-2.69709e-17
2.945	-59.0772	712.4160000000001	-36.3786	1.29366	0	-0.418143	0.112802	-1.36029	0.0694615	-0.000114018	4.56483e-05	4.13576e-06	0.997324	0	-0.536106	1.44309e-15	-5.77754e-16	-5.23449e-17
